<svg width="24" height="24" viewBox="0 0 24 24" fill="none" xmlns="http://www.w3.org/2000/svg">
<path fill-rule="evenodd" clip-rule="evenodd" d="M4.60399 2.26732C4.74769 1.9109 5.25228 1.91089 5.396 2.2673L5.9317 3.59576C6.01848 3.81098 6.18913 3.98162 6.40435 4.0684L7.73269 4.60399C8.08909 4.7477 8.08911 5.25227 7.73271 5.396L6.40431 5.9317C6.18911 6.01849 6.01849 6.18911 5.9317 6.40431L5.396 7.73271C5.25227 8.08911 4.7477 8.08909 4.60399 7.73269L4.0684 6.40435C3.98162 6.18913 3.81098 6.01848 3.59576 5.93169L2.2673 5.396C1.91089 5.25228 1.9109 4.74769 2.26732 4.60399L3.59571 4.06841C3.81096 3.98162 3.98162 3.81096 4.06841 3.59571L4.60399 2.26732ZM14.076 5.62375C14.4113 4.79211 15.5887 4.79207 15.924 5.6237L17.174 8.72343C17.3765 9.22562 17.7746 9.62377 18.2768 9.82626L21.3763 11.076C22.2079 11.4113 22.2079 12.5886 21.3763 12.924L18.2767 14.174C17.7746 14.3765 17.3765 14.7746 17.174 15.2767L15.924 18.3763C15.5886 19.2079 14.4113 19.2079 14.076 18.3763L12.8263 15.2768C12.6238 14.7746 12.2256 14.3765 11.7234 14.174L8.6237 12.924C7.79207 12.5887 7.79211 11.4113 8.62375 11.076L11.7233 9.82628C12.2256 9.62378 12.6238 9.22558 12.8263 8.72333L14.076 5.62375ZM5.396 16.2673C5.25228 15.9109 4.74769 15.9109 4.60399 16.2673L4.06841 17.5957C3.98162 17.811 3.81096 17.9816 3.59571 18.0684L2.26732 18.604C1.9109 18.7477 1.91089 19.2523 2.2673 19.396L3.59576 19.9317C3.81098 20.0185 3.98162 20.1891 4.0684 20.4044L4.60399 21.7327C4.7477 22.0891 5.25227 22.0891 5.396 21.7327L5.9317 20.4043C6.01849 20.1891 6.18911 20.0185 6.40431 19.9317L7.73271 19.396C8.08911 19.2523 8.08909 18.7477 7.73269 18.604L6.40435 18.0684C6.18913 17.9816 6.01848 17.811 5.9317 17.5958L5.396 16.2673Z" fill="url(#paint0_linear_225_4983)"/>
<defs>
<linearGradient id="paint0_linear_225_4983" x1="22" y1="22" x2="2" y2="2" gradientUnits="userSpaceOnUse">
<stop stop-color="#E87EF1"/>
<stop offset="0.71948" stop-color="#867AFF"/>
<stop offset="1" stop-color="#85E1FF"/>
</linearGradient>
</defs>
</svg>
