<svg preserveAspectRatio="none" width="100%" height="100%" overflow="visible" style="display: block;" viewBox="0 0 24.0299 19.7282" fill="none" xmlns="http://www.w3.org/2000/svg">
<g id="Group">
<path id="Vector" d="M10.9704 2.64551C11.3533 1.1756 12.9556 0.744398 14.5784 1.19162L21.7034 2.75068C23.3263 3.1979 24.3314 4.75205 23.9485 6.22194L20.9437 17.7552C20.5607 19.2251 18.9347 20.0542 17.3118 19.607L10.2106 17.6501C8.58775 17.2028 7.58258 15.6487 7.96557 14.1788L10.9704 2.64551Z" fill="var(--fill-0, #F8A8FF)"/>
<path id="Vector_2" fill-rule="evenodd" clip-rule="evenodd" d="M21.4723 3.63786L14.6097 2.15103C13.5279 1.85288 12.2051 1.93548 11.9498 2.91543L8.94502 14.4487C8.68971 15.4287 9.35984 16.4647 10.4417 16.7629L17.543 18.7197C18.6249 19.018 19.709 18.4652 19.9642 17.4854L22.969 5.95205C23.2243 4.9721 22.5543 3.93599 21.4723 3.63786ZM14.5784 1.19158C12.9556 0.74436 11.3533 1.1756 10.9704 2.64551L7.96557 14.1788C7.58258 15.6487 8.58775 17.2028 10.2106 17.6501L17.3118 19.607C18.9347 20.0542 20.5607 19.2251 20.9437 17.7552L23.9485 6.22194C24.3314 4.75205 23.3263 3.1979 21.7034 2.75068L14.5784 1.19158Z" fill="var(--fill-0, black)"/>
<path id="Vector_3" d="M7.54026 2.42657C7.79721 0.927913 9.34677 -0.043746 11.0014 0.256302L18.2414 1.56925C19.896 1.86931 21.0291 3.32744 20.7721 4.82609L18.7561 16.5848C18.4992 18.0835 16.9496 19.055 15.2949 18.755L8.05495 17.4421C6.40036 17.142 5.26732 15.6839 5.52429 14.1852L7.54026 2.42657Z" fill="var(--fill-0, #85B8FF)"/>
<path id="Vector_4" fill-rule="evenodd" clip-rule="evenodd" d="M18.0863 2.47378L10.8463 1.16082C9.74326 0.960788 8.71021 1.60856 8.5389 2.60766L6.52293 14.3664C6.35161 15.3655 7.10695 16.3376 8.20997 16.5376L15.45 17.8506C16.5531 18.0506 17.5861 17.4028 17.7575 16.4038L19.7734 4.645C19.9448 3.6459 19.1894 2.6738 18.0863 2.47378ZM11.0014 0.256302C9.34677 -0.043746 7.79721 0.927913 7.54026 2.42657L5.52429 14.1852C5.26732 15.6839 6.40036 17.142 8.05495 17.4421L15.2949 18.755C16.9496 19.055 18.4992 18.0835 18.7561 16.5848L20.7721 4.82609C21.0291 3.32744 19.896 1.86931 18.2414 1.56925L11.0014 0.256302Z" fill="var(--fill-0, black)"/>
<path id="Vector_5" d="M0 2.75562C0 1.23385 1.35579 0.000210552 3.02824 0.000210552L13.6894 0.000187734C15.3618 0.000187734 16.9851 1.119 16.9851 2.64076V14.466C16.9851 15.9878 15.6292 17.4511 13.9568 17.4511H3.02824C1.35579 17.4511 0 16.2174 0 14.6957V2.75562Z" fill="var(--fill-0, #FFDD33)"/>
<path id="Vector_6" fill-rule="evenodd" clip-rule="evenodd" d="M5.12202 7.08013L3.63587 3.77767H5.12202L7.72278 6.45108L5.12202 13.685H3.63587L5.12202 7.08013ZM7.87144 6.45108L6.53392 3.77767H8.02004L10.5465 5.97931L8.02004 13.685H6.53392L7.87144 6.45108ZM9.50674 3.77767L10.6957 5.90068L9.50674 13.685H10.8443L13.3707 5.42891L10.9929 3.77767H9.50674Z" fill="var(--fill-0, #18191C)"/>
<path id="Vector_7" fill-rule="evenodd" clip-rule="evenodd" d="M13.9109 0.918673L3.07413 0.918684C1.94227 0.918684 1.02471 1.74111 1.02471 2.75562V14.6957C1.02471 15.7102 1.94227 16.5326 3.07413 16.5326H13.9109C15.0428 16.5326 15.9604 15.7102 15.9604 14.6957V2.75562C15.9604 1.74109 15.0428 0.918673 13.9109 0.918673ZM3.07413 0.000215046C1.36957 -0.0185232 0 1.18954 0 2.75562V14.6957C0 16.2174 1.30435 17.4982 3.07413 17.4511H13.9109C15.6087 17.4511 16.9851 16.2174 16.9851 14.6957V2.69162C17.0217 1.12241 15.6087 0.000204326 13.9109 0.000204326L3.07413 0.000215046Z" fill="var(--fill-0, black)"/>
</g>
</svg>
