<svg width="64" height="20" viewBox="0 0 64 20" fill="none" xmlns="http://www.w3.org/2000/svg">
<g clip-path="url(#clip0_962_18041)">
<mask id="mask0_962_18041" style="mask-type:luminance" maskUnits="userSpaceOnUse" x="0" y="0" width="56" height="20">
<path d="M0 0H56V19.6353H0V0Z" fill="white"/>
</mask>
<g mask="url(#mask0_962_18041)">
<path d="M31.9945 11.4614V19.4017H35.2676V11.9483C35.2676 8.62867 39.8145 8.62328 39.8145 8.62328V5.39276C39.8145 5.39276 38.5432 5.44886 37.5387 5.6736C34.6904 6.31024 31.9945 7.7067 31.9945 11.4614ZM7.32144 5.2322C8.59634 5.2322 10.1895 5.94917 11.057 7.20999C11.955 6.06328 13.4319 5.28931 15.2567 5.25992C17.5749 5.23041 20.4412 6.66424 20.4412 10.9647V19.3919H17.1674V10.9647C17.1674 9.531 16.1242 8.5002 14.5625 8.5002C13.0008 8.5002 11.9567 9.531 11.9567 10.9647V19.3919H8.68373V10.9647C8.68373 9.531 7.6414 8.5002 6.07792 8.5002C4.51455 8.5002 3.44253 9.531 3.44253 10.9647V19.3919H0V5.65935H3.44242V7.03877C4.37026 5.92146 5.72995 5.23231 7.32313 5.23231L7.32144 5.2322ZM27.9679 5.83417V19.402H24.639V5.83417H27.9679ZM26.3031 3.67551C27.3294 3.67551 28.1614 2.85262 28.1614 1.83764C28.1614 0.822889 27.3294 0 26.3031 0C25.2768 0 24.4448 0.822777 24.4448 1.83776C24.4448 2.85262 25.2768 3.67551 26.3031 3.67551ZM48.7029 5.20281C44.6726 5.20281 41.4059 8.43332 41.4059 12.4191C41.4059 16.4048 44.6726 19.6353 48.7029 19.6353C52.7334 19.6353 56 16.4048 56 12.4191C56 8.43332 52.7334 5.20281 48.7029 5.20281ZM48.7029 16.3906C46.4219 16.3906 44.5716 14.5618 44.5716 12.305C44.5716 10.0481 46.4209 8.21935 48.7029 8.21935C50.9851 8.21935 52.8343 10.0481 52.8343 12.305C52.8343 14.5618 50.9851 16.3906 48.7029 16.3906Z" fill="#222428"/>
</g>
</g>
<defs>
<clipPath id="clip0_962_18041">
<rect width="56" height="20" fill="white"/>
</clipPath>
</defs>
</svg>
