<svg preserveAspectRatio="none" width="100%" height="100%" overflow="visible" style="display: block;" viewBox="0 0 24 24" fill="none" xmlns="http://www.w3.org/2000/svg">
<g id="board-icon-org-chart-24">
<path id="Union" d="M10 2.5H14C14.8284 2.5 15.5 3.17157 15.5 4V7C15.5 7.82843 14.8284 8.5 14 8.5H12.5V11.5H17.793L18.5 12.207V15.5H20C20.8284 15.5 21.5 16.1716 21.5 17V20C21.5 20.8284 20.8284 21.5 20 21.5H16C15.1716 21.5 14.5 20.8284 14.5 20V17C14.5 16.1716 15.1716 15.5 16 15.5H17.5V12.5H6.5V15.5H8C8.82843 15.5 9.5 16.1716 9.5 17V20C9.5 20.8284 8.82843 21.5 8 21.5H4C3.17157 21.5 2.5 20.8284 2.5 20V17C2.5 16.1716 3.17157 15.5 4 15.5H5.5V12.207L6.20703 11.5H11.5V8.5H10C9.17157 8.5 8.5 7.82843 8.5 7V4C8.5 3.17157 9.17157 2.5 10 2.5Z" fill="url(#paint0_linear_0_4)" stroke="var(--stroke-0, #D23B5E)"/>
</g>
<defs>
<linearGradient id="paint0_linear_0_4" x1="12" y1="2" x2="12" y2="22" gradientUnits="userSpaceOnUse">
<stop stop-color="#FF3663"/>
<stop offset="1" stop-color="#FF6E91"/>
</linearGradient>
</defs>
</svg>
