<svg xmlns="http://www.w3.org/2000/svg" viewBox="0 0 32 32">
  <defs>
    <linearGradient id="a" x1="98.03%" x2="58.89%" y1="0.22%" y2="40.77%">
      <stop offset="18%" stop-color="#0052CC" stop-opacity="0"/>
      <stop offset="100%" stop-color="#2684FF"/>
    </linearGradient>
    <linearGradient id="b" x1="100.17%" x2="55.76%" y1="0.45%" y2="44.73%">
      <stop offset="18%" stop-color="#0052CC" stop-opacity="0"/>
      <stop offset="100%" stop-color="#2684FF"/>
    </linearGradient>
  </defs>
  <path fill="#2684FF" d="M15.52 1.643h-1.393c0 4.153-3.373 7.527-7.527 7.527v1.393c0 4.153-3.373 7.526-7.527 7.526v1.394c8.58 0 16.447-6.473 16.447-17.84z"/>
  <path fill="url(#a)" d="M10.88 6.317H9.487c0 4.153-3.373 7.526-7.527 7.526v1.394c0 4.153-3.373 7.526-7.527 7.526v1.394c8.58 0 16.447-6.473 16.447-17.84z" transform="translate(5.333 5.333)"/>
  <path fill="url(#b)" d="M21.16 10.99h-1.393c0 4.154-3.373 7.527-7.527 7.527V19.91c0 4.154-3.373 7.527-7.527 7.527v1.393c8.58 0 16.447-6.473 16.447-17.84z"/>
</svg>
