<svg preserveAspectRatio="none" width="100%" height="100%" overflow="visible" style="display: block;" viewBox="0 0 73.6104 25.9714" fill="none" xmlns="http://www.w3.org/2000/svg">
<g id="Group">
<path id="Vector" d="M42.0559 15.1599V25.6624H46.3582V15.8038C46.3582 11.413 52.3351 11.4059 52.3351 11.4059V7.13294C52.3351 7.13294 50.664 7.20714 49.3436 7.5044C45.5996 8.34647 42.0559 10.1936 42.0559 15.1599ZM9.62382 6.92057C11.2996 6.92057 13.3938 7.86889 14.534 9.53656C15.7145 8.01982 17.6558 6.99611 20.0545 6.95722C23.1016 6.91819 26.8694 8.8147 26.8694 14.5029V25.6494H22.566V14.5029C22.566 12.6065 21.1948 11.2431 19.142 11.2431C17.0892 11.2431 15.7167 12.6065 15.7167 14.5029V25.6494H11.4145V14.5029C11.4145 12.6065 10.0444 11.2431 7.98925 11.2431C5.93425 11.2431 4.52511 12.6065 4.52511 14.5029V25.6494H0V7.48556H4.52496V9.31008C5.74458 7.83224 7.53186 6.92071 9.62605 6.92071L9.62382 6.92057ZM36.7631 7.71678V25.6627H32.3872V7.71678H36.7631ZM34.5746 4.86155C35.9237 4.86155 37.0174 3.77313 37.0174 2.43063C37.0174 1.08842 35.9237 0 34.5746 0C33.2256 0 32.132 1.08828 32.132 2.43078C32.132 3.77313 33.2256 4.86155 34.5746 4.86155ZM64.0186 6.88168C58.7209 6.88168 54.4269 11.1546 54.4269 16.4265C54.4269 21.6984 58.7209 25.9714 64.0186 25.9714C69.3165 25.9714 73.6104 21.6984 73.6104 16.4265C73.6104 11.1546 69.3165 6.88168 64.0186 6.88168ZM64.0186 21.6796C61.0202 21.6796 58.5881 19.2607 58.5881 16.2756C58.5881 13.2905 61.019 10.8716 64.0186 10.8716C67.0184 10.8716 69.4492 13.2905 69.4492 16.2756C69.4492 19.2607 67.0184 21.6796 64.0186 21.6796Z" fill="var(--fill-0, #1A1B1E)"/>
</g>
</svg>
