<svg xmlns="http://www.w3.org/2000/svg" width="74" height="26" viewBox="0 0 74 26" fill="none">
  <path d="M10.16 5.65L4.56 8.58c-.37.19-.6.58-.6 1v7.84c0 .42.23.81.6 1l5.6 2.93c.37.19.81.19 1.18 0l5.6-2.93c.37-.19.6-.58.6-1V9.58c0-.42-.23-.81-.6-1l-5.6-2.93a1.18 1.18 0 00-1.18 0z" fill="#FFD02F"/>
  <path d="M28.5 7.5h2.8l3.5 7.5 3.5-7.5h2.8V19h-2.3v-7.8L35.7 19h-1.8l-3.1-7.8V19h-2.3V7.5zm15.3 2.7c0-.9.7-1.6 1.5-1.6s1.5.7 1.5 1.6-.7 1.5-1.5 1.5-1.5-.7-1.5-1.5zm.3 2.8h2.3V19h-2.3v-6zm4.3 0h2.3v1.2c.5-.9 1.5-1.4 2.7-1.4v2.3h-.3c-1.4 0-2.4.6-2.4 2.5V19h-2.3v-6zm6.1 3c0-1.9 1.5-3.2 3.5-3.2s3.5 1.3 3.5 3.2-1.5 3.2-3.5 3.2-3.5-1.3-3.5-3.2zm4.8 0c0-1-.6-1.7-1.3-1.7s-1.3.7-1.3 1.7.6 1.7 1.3 1.7 1.3-.7 1.3-1.7z" fill="#050038"/>
</svg>
